<svg width="1000" height="1000" viewBox="0 0 1000 1000" fill="none" xmlns="http://www.w3.org/2000/svg">
<rect y="500" width="1000" height="166" fill="#008026"/>
<rect y="666" width="1000" height="168" fill="#004DFF"/>
<rect y="168" width="1000" height="166" fill="#FF8C00"/>
<rect y="334" width="1000" height="166" fill="#FFED00"/>
<rect width="1000" height="168" fill="#E40303"/>
<rect y="834" width="1000" height="166" fill="#750787"/>
<path fill-rule="evenodd" clip-rule="evenodd" d="M595.239 825.604L671.756 781.3C691.899 814.196 718.078 838.359 764.392 838.359C803.33 838.359 828.16 818.891 828.16 792.04C828.16 759.819 802.654 748.407 759.692 729.618L736.205 719.542C668.404 690.683 623.427 654.435 623.427 577.91C623.427 507.427 677.127 453.724 761.038 453.724C820.781 453.724 863.741 474.535 894.616 528.908L821.448 575.894C805.337 547.032 787.889 535.623 761.04 535.623C733.518 535.623 716.064 553.075 716.064 575.894C716.064 604.088 733.518 615.502 773.789 632.956L797.281 643.024C877.162 677.261 922.138 712.162 922.138 790.697C922.138 875.281 855.684 921.594 766.408 921.594C679.145 921.594 622.758 879.978 595.24 825.604" fill="white"/>
<path fill-rule="evenodd" clip-rule="evenodd" d="M262.936 835.673L339.463 789.36C354.227 815.537 367.657 837.684 399.871 837.684C430.75 837.684 450.219 825.605 450.219 778.621V459.097H544.193V779.949C544.193 877.282 487.139 921.586 403.9 921.586C328.724 921.586 285.086 882.651 262.935 835.665" fill="white"/>
</svg>
