<svg width="1000" height="1000" viewBox="0 0 1000 1000" fill="none" xmlns="http://www.w3.org/2000/svg">
<g clip-path="url(#clip0)">
<rect x="1" y="664" width="1000" height="334" fill="#21B1FF"/>
<rect x="1" y="331" width="1000" height="334" fill="#FFD800"/>
<rect x="1" y="-2" width="1000" height="334" fill="#FF218C"/>
<path fill-rule="evenodd" clip-rule="evenodd" d="M596.239 823.604L672.756 779.3C692.899 812.196 719.078 836.359 765.392 836.359C804.33 836.359 829.161 816.891 829.161 790.04C829.161 757.819 803.654 746.407 760.692 727.618L737.205 717.542C669.404 688.683 624.428 652.435 624.428 575.91C624.428 505.427 678.128 451.724 762.038 451.724C821.781 451.724 864.741 472.535 895.616 526.908L822.448 573.894C806.337 545.032 788.889 533.623 762.04 533.623C734.518 533.623 717.064 551.075 717.064 573.894C717.064 602.088 734.518 613.502 774.789 630.956L798.281 641.024C878.162 675.261 923.138 710.162 923.138 788.697C923.138 873.281 856.684 919.594 767.408 919.594C680.145 919.594 623.758 877.978 596.24 823.604" fill="white"/>
<path fill-rule="evenodd" clip-rule="evenodd" d="M263.936 833.673L340.463 787.36C355.227 813.537 368.657 835.684 400.871 835.684C431.75 835.684 451.219 823.605 451.219 776.621V457.097H545.193V777.949C545.193 875.282 488.139 919.586 404.9 919.586C329.724 919.586 286.086 880.651 263.935 833.665" fill="white"/>
</g>
<defs>
<clipPath id="clip0">
<rect width="1000" height="1000" fill="white"/>
</clipPath>
</defs>
</svg>
