<svg width="1000" height="1000" viewBox="0 0 1000 1000" fill="none" xmlns="http://www.w3.org/2000/svg">
<g clip-path="url(#clip0)">
<path d="M-93 11H1508V1000H-93V11Z" fill="#750787"/>
<path d="M-93 11H1508V876.375H-93V11Z" fill="#004DFF"/>
<path d="M-93 11H1508V752.75H-93V11Z" fill="#008026"/>
<path d="M-93 11H1508V629.125H-93V11Z" fill="#FFED00"/>
<path d="M-93 11H1508V505.5H-93V11Z" fill="#FF8C00"/>
<path d="M-93 11H1508V381.875H-93V11Z" fill="#E40303"/>
<path d="M-93 11H1508V258.25H-93V11Z" fill="#784F17"/>
<path d="M-93 11H1508V134.625H-93V11Z" fill="black"/>
<path fill-rule="evenodd" clip-rule="evenodd" d="M595.238 825.604L671.756 781.3C691.898 814.196 718.078 838.359 764.392 838.359C803.33 838.359 828.16 818.891 828.16 792.04C828.16 759.819 802.654 748.407 759.692 729.618L736.205 719.542C668.403 690.683 623.427 654.435 623.427 577.91C623.427 507.427 677.127 453.724 761.038 453.724C820.781 453.724 863.741 474.535 894.615 528.908L821.447 575.894C805.336 547.032 787.889 535.623 761.04 535.623C733.517 535.623 716.063 553.075 716.063 575.894C716.063 604.088 733.517 615.502 773.789 632.956L797.281 643.024C877.161 677.261 922.138 712.162 922.138 790.697C922.138 875.281 855.684 921.594 766.408 921.594C679.144 921.594 622.757 879.978 595.24 825.604" fill="white"/>
<path fill-rule="evenodd" clip-rule="evenodd" d="M262.936 835.673L339.463 789.36C354.226 815.537 367.657 837.684 399.871 837.684C430.75 837.684 450.218 825.605 450.218 778.621V459.097H544.193V779.949C544.193 877.282 487.139 921.586 403.899 921.586C328.723 921.586 285.085 882.651 262.935 835.665" fill="white"/>
</g>
<defs>
<clipPath id="clip0">
<rect width="1000" height="1000" fill="white"/>
</clipPath>
</defs>
</svg>
